<svg xmlns="http://www.w3.org/2000/svg" width="20" height="20" viewBox="0 0 20 20" fill="none">
  <path d="M3.22928 4.06258C3.22928 3.60234 3.60237 3.22925 4.06261 3.22925L15.9376 3.22925C16.3978 3.22925 16.7709 3.60234 16.7709 4.06258C16.7709 4.52282 16.3978 4.89591 15.9376 4.89591H4.06261C3.60237 4.89591 3.22928 4.52282 3.22928 4.06258Z" fill="white"/>
  <path d="M3.22926 10C3.22926 9.53976 3.60235 9.16667 4.06259 9.16667L15.9376 9.16667C16.3978 9.16667 16.7709 9.53977 16.7709 10C16.7709 10.4602 16.3978 10.8333 15.9376 10.8333L4.06259 10.8333C3.60235 10.8333 3.22926 10.4602 3.22926 10Z" fill="white"/>
  <path d="M4.06258 15.1042C3.60234 15.1042 3.22925 15.4773 3.22925 15.9376C3.22925 16.3978 3.60234 16.7709 4.06258 16.7709H15.9376C16.3978 16.7709 16.7709 16.3978 16.7709 15.9376C16.7709 15.4773 16.3978 15.1042 15.9376 15.1042L4.06258 15.1042Z" fill="white"/>
</svg>